<?xml version="1.0" encoding="UTF-8"?>
<svg width="137" height="137" version="1.0" viewBox="0 0 102.75 102.75" xmlns="http://www.w3.org/2000/svg" zoomAndPan="magnify">
<defs>
<clipPath id="i">
<path d="m25 0.57812h19v15.422h-19z"/>
</clipPath>
<clipPath id="g">
<path d="m26 0.57812h18v15.422h-18z"/>
</clipPath>
<clipPath id="n">
<path d="m25 0.57812h19v15.422h-19z"/>
</clipPath>
<clipPath id="k">
<path d="m84 67h18.5v16h-18.5z"/>
</clipPath>
<clipPath id="a">
<path d="m85 67h17.5v16h-17.5z"/>
</clipPath>
<clipPath id="m">
<path d="m84 67h18.5v16h-18.5z"/>
</clipPath>
<clipPath id="b">
<path d="m22 96h13v5.582h-13z"/>
</clipPath>
<clipPath id="d">
<path d="m2 94h12v7.582h-12z"/>
</clipPath>
<clipPath id="e">
<path d="m44 74h43v27.582h-43z"/>
</clipPath>
<clipPath id="p">
<path d="m44 87h9v14.582h-9z"/>
</clipPath>
<clipPath id="j">
<path d="m43 74h44v27.582h-44z"/>
</clipPath>
<clipPath id="o">
<path d="m53 86h24v15.582h-24z"/>
</clipPath>
<clipPath id="l">
<path d="m53 86h24v15.582h-24z"/>
</clipPath>
<clipPath id="c">
<path d="m41 101h5v0.58203h-5z"/>
</clipPath>
<clipPath id="q">
<path d="m47 101h5v0.58203h-5z"/>
</clipPath>
<clipPath id="f">
<path d="m82 101h8v0.58203h-8z"/>
</clipPath>
<clipPath id="h">
<path d="m91 101h3v0.58203h-3z"/>
</clipPath>
</defs>
<path d="m97.883 61.859c-0.91016 5.7891-3.5977 11.66-8.6367 14.691-3.6758 2.2266-8.1602 2.6602-12.469 2.6602-4.3047 0-8.6328-0.39453-12.883 0.37109-2.8438 0.51562-6.1641 1.2227-7.9023 3.5078-2.9062 3.8203-6.6797 7.3242-11.402 8.1914-4.7188 0.86719-9.6016 0.17578-14.324-0.66797-4.5039-0.78906-9.1094-1.7539-12.98-4.1758-3.875-2.4219-6.957-6.6172-6.7969-11.168 0.19531-6.2422 6.1445-11.262 6.1836-17.504 0.058594-6.3242-5.7305-10.93-8.8516-16.426-3.4961-6.2031-3.4961-14.16-0.039062-20.344s10.273-10.336 17.367-10.613c10.809-0.41406 20.156 7.3867 30.727 9.7305 4.6016 1.0234 9.3633 0.98438 13.988 1.8711 8.832 1.7109 16.914 6.9492 22.09 14.297 5.1562 7.3438 7.332 16.719 5.9297 25.578z" fill="#eef4ff"/>
<path transform="matrix(.19759 0 0 .19693 -17.412 -17.836)" d="m368.39 381.31c-13.601 0-24.593-11.108-24.593-24.616v-199.49c0-13.607 11.091-24.597 24.593-24.597h199.4c13.601 0 24.613 11.088 24.613 24.597v199.39c0 13.607-11.111 24.616-24.613 24.616h-199.4zm0 0" fill="#fff" stroke="#112544" stroke-linecap="round" stroke-linejoin="round" stroke-miterlimit="10" stroke-width="1.5"/>
<path transform="matrix(.19759 0 0 .19693 -17.412 -17.836)" d="m580.4 157.2v199.39c0 7.0021-5.7134 12.616-12.613 12.616h-199.4c-6.9984 0-12.593-5.7128-12.593-12.616v-199.39c0-7.0021 5.6936-12.596 12.593-12.596h199.4c7.0182-0.09918 12.613 5.5937 12.613 12.596zm0 0" fill="#e1e5ff" stroke="#112544" stroke-linecap="round" stroke-linejoin="round" stroke-miterlimit="10" stroke-width="1.5"/>
<path d="m93.059 44.668v5.8711c0 0.55078-0.45312 1.0039-1.0078 1.0039h-34.914c-0.55078 0-1.0078-0.45312-1.0078-1.0039v-5.8711c0-0.55078 0.45703-1.0039 1.0078-1.0039h34.914c0.55469 0.019532 1.0078 0.45313 1.0078 1.0039z" fill="#ccd2ff"/>
<path transform="matrix(.19759 0 0 .19693 -17.412 -17.836)" d="m562.91 313.29v29.813c0 2.7969-2.313 5.0978-5.1006 5.0978h-176.7c-2.8073 0-5.1006-2.301-5.1006-5.0978v-29.813c0-2.7969 2.2933-5.0978 5.1006-5.0978h176.7c2.7875 0 5.1006 2.301 5.1006 5.0978zm0 0" fill="#fff" stroke="#112544" stroke-linecap="round" stroke-linejoin="round" stroke-miterlimit="10" stroke-width="1.5"/>
<path d="m93.059 33.129v5.8672c0 0.55078-0.45312 1.0039-1.0078 1.0039h-34.914c-0.55078 0-1.0078-0.45312-1.0078-1.0039v-5.8672c0-0.55078 0.45703-1.0039 1.0078-1.0039h34.914c0.55469 0 1.0078 0.43359 1.0078 1.0039z" fill="#ccd2ff"/>
<path transform="matrix(.19759 0 0 .19693 -17.412 -17.836)" d="m562.91 254.6v29.813c0 2.7969-2.313 5.0978-5.1006 5.0978h-176.7c-2.8073 0-5.1006-2.301-5.1006-5.0978v-29.813c0-2.7969 2.2933-5.0978 5.1006-5.0978h176.7c2.7875 0 5.1006 2.301 5.1006 5.0978zm0 0" fill="#fff" stroke="#112544" stroke-linecap="round" stroke-linejoin="round" stroke-miterlimit="10" stroke-width="1.5"/>
<path d="m81.582 21.609c0 4.0352-3.2812 7.3242-7.3516 7.3242-4.0508 0-7.3516-3.2695-7.3516-7.3242 0-4.0586 3.2812-7.3281 7.3516-7.3281 4.0508 0 7.3516 3.2891 7.3516 7.3281z" fill="#ccd2ff"/>
<path transform="matrix(.19759 0 0 .19693 -17.412 -17.836)" d="m505.3 196.2c0 20.51-16.606 37.192-37.206 37.192s-37.187-16.583-37.187-37.192c0-20.59 16.587-37.192 37.187-37.192s37.206 16.603 37.206 37.192zm0 0" fill="#fff" stroke="#112544" stroke-linecap="round" stroke-linejoin="round" stroke-miterlimit="10" stroke-width="1.5"/>
<path d="m76.758 18.043c0 0.92578-0.75 1.6758-1.6797 1.6758-0.53125 0-1.0078-0.25781-1.3242-0.63281-0.23438-0.27344-0.375-0.64844-0.375-1.043 0-0.92578 0.75391-1.6719 1.6797-1.6719 0.17969 0 0.35547 0.019531 0.51562 0.078125 0.69141 0.21484 1.1836 0.84766 1.1836 1.5938z" fill="#efa130"/>
<path d="m75.949 17.492c0 0.92578-0.75 1.6758-1.6797 1.6758-0.17969 0-0.35547-0.019531-0.51562-0.082031-0.23438-0.27344-0.375-0.64844-0.375-1.043 0-0.92578 0.75391-1.6719 1.6797-1.6719 0.17969 0 0.35547 0.019531 0.51562 0.078125 0.23828 0.29688 0.375 0.64844 0.375 1.043z" fill="#ffc25e"/>
<path transform="matrix(.19759 0 0 .19693 -17.412 -17.836)" d="m476.59 182.19c0 4.7011-3.7958 8.5096-8.5009 8.5096-4.6854 0-8.5009-3.8085-8.5009-8.5096 0-4.7011 3.8155-8.4898 8.5009-8.4898 4.7052 0 8.5009 3.7887 8.5009 8.4898zm0 0" fill="none" stroke="#112544" stroke-linecap="round" stroke-linejoin="round" stroke-miterlimit="10" stroke-width="1.5"/>
<path d="m78.832 24.621h-7.5273c-0.25781 0-0.45313-0.21484-0.43359-0.47266 0-0.078126 0.019531-0.15625 0.039062-0.21484 0.33594-1.9688 2.0742-3.4883 4.1484-3.4883 0.51562 0 1.0078 0.10156 1.4648 0.25781 1.4609 0.53125 2.5469 1.8516 2.7266 3.4453 0.039062 0.23828-0.16016 0.47266-0.41797 0.47266z" fill="#efa130"/>
<path d="m77.609 23.914h-6.6992c0.33594-1.9727 2.0742-3.4883 4.1484-3.4883 0.51562 0 1.0078 0.097657 1.4648 0.25781 0.80859 0.66797 1.3633 1.6328 1.5 2.7383 0.039062 0.27344-0.15625 0.49219-0.41406 0.49219z" fill="#ffc25e"/>
<path transform="matrix(.19759 0 0 .19693 -17.412 -17.836)" d="m487.09 215.6c1.3048 0 2.313-1.091 2.2142-2.4002-1.3048-10.592-10.3-18.804-21.213-18.804-10.893 0-19.888 8.2121-21.193 18.804-0.1977 1.3092 0.9094 2.4002 2.1944 2.4002zm0 0" fill="none" stroke="#112544" stroke-linecap="round" stroke-linejoin="round" stroke-miterlimit="10" stroke-width="1.5"/>
<path d="m62.848 35.234c0 0.94531-0.76953 1.6953-1.6992 1.6953-0.53125 0-1.0273-0.25781-1.3438-0.64844-0.23438-0.29688-0.375-0.67188-0.375-1.0664 0-0.94531 0.76953-1.7109 1.7188-1.7109 0.17969 0 0.35547 0.019532 0.51562 0.078125 0.69141 0.25391 1.1836 0.90625 1.1836 1.6523z" fill="#757bff"/>
<path d="m62.039 34.684c0 0.94531-0.76953 1.7148-1.6992 1.7148-0.17969 0-0.35547-0.019532-0.51562-0.078126-0.23438-0.29687-0.375-0.67187-0.375-1.0664 0-0.94531 0.77344-1.7109 1.7188-1.7109 0.17969 0 0.35547 0.019531 0.51562 0.078125 0.21484 0.27734 0.35547 0.64844 0.35547 1.0625z" fill="#8d95ff"/>
<path transform="matrix(.19759 0 0 .19693 -17.412 -17.836)" d="m406.19 269.49c0 4.8003-3.8946 8.708-8.5998 8.708-4.804 0-8.5998-3.9077-8.5998-8.708s3.9144-8.589 8.5998-8.589c4.7052 0 8.5998 3.7887 8.5998 8.589zm0 0" fill="none" stroke="#112544" stroke-linecap="round" stroke-linejoin="round" stroke-miterlimit="10" stroke-width="1.5"/>
<path d="m68.539 35.234c0 0.94531-0.76953 1.6953-1.6992 1.6953-0.53516 0-1.0273-0.25781-1.3438-0.64844-0.23828-0.29688-0.375-0.67188-0.375-1.0664 0-0.94531 0.76953-1.7109 1.7188-1.7109 0.17969 0 0.35547 0.019532 0.51562 0.078125 0.69141 0.25391 1.1836 0.90625 1.1836 1.6523z" fill="#757bff"/>
<path d="m67.73 34.684c0 0.94531-0.77344 1.7148-1.6992 1.7148-0.17969 0-0.35547-0.019532-0.51562-0.078126-0.23828-0.29687-0.375-0.67187-0.375-1.0664 0-0.94531 0.76953-1.7109 1.7188-1.7109 0.17969 0 0.35547 0.019531 0.51562 0.078125 0.21484 0.27734 0.35547 0.64844 0.35547 1.0625z" fill="#8d95ff"/>
<path transform="matrix(.19759 0 0 .19693 -17.412 -17.836)" d="m435 269.49c0 4.8003-3.8946 8.708-8.5998 8.708-4.804 0-8.5998-3.9077-8.5998-8.708s3.8946-8.589 8.5998-8.589c4.804 0 8.5998 3.7887 8.5998 8.589zm0 0" fill="none" stroke="#112544" stroke-linecap="round" stroke-linejoin="round" stroke-miterlimit="10" stroke-width="1.5"/>
<path d="m74.25 35.234c0 0.94531-0.76953 1.6953-1.6992 1.6953-0.53516 0-1.0273-0.25781-1.3438-0.64844-0.23828-0.29688-0.375-0.67188-0.375-1.0664 0-0.94531 0.76953-1.7109 1.7188-1.7109 0.17578 0 0.35547 0.019532 0.51172 0.078125 0.69141 0.25391 1.1875 0.90625 1.1875 1.6523z" fill="#757bff"/>
<path d="m73.418 34.684c0 0.94531-0.76953 1.7148-1.6992 1.7148-0.17578 0-0.35547-0.019532-0.51172-0.078126-0.23828-0.29687-0.375-0.67187-0.375-1.0664 0-0.94531 0.76953-1.7109 1.7188-1.7109 0.17578 0 0.35547 0.019531 0.51172 0.078125 0.21875 0.27734 0.35547 0.64844 0.35547 1.0625z" fill="#8d95ff"/>
<path transform="matrix(.19759 0 0 .19693 -17.412 -17.836)" d="m463.9 269.49c0 4.8003-3.8946 8.708-8.5998 8.708-4.804 0-8.5998-3.9077-8.5998-8.708s3.8946-8.589 8.5998-8.589c4.7052 0 8.5998 3.7887 8.5998 8.589zm0 0" fill="none" stroke="#112544" stroke-linecap="round" stroke-linejoin="round" stroke-miterlimit="10" stroke-width="1.5"/>
<path d="m79.941 35.234c0 0.94531-0.77344 1.6953-1.6992 1.6953-0.53516 0-1.0273-0.25781-1.3438-0.64844-0.23828-0.29688-0.375-0.67188-0.375-1.0664 0-0.94531 0.76953-1.7109 1.7188-1.7109 0.17578 0 0.35547 0.019532 0.51172 0.078125 0.69141 0.25391 1.1875 0.90625 1.1875 1.6523z" fill="#757bff"/>
<path d="m79.129 34.684c0 0.94531-0.76953 1.7148-1.6992 1.7148-0.17578 0-0.35547-0.019532-0.51172-0.078126-0.23828-0.29687-0.375-0.67187-0.375-1.0664 0-0.94531 0.76953-1.7109 1.7188-1.7109 0.17578 0 0.35547 0.019531 0.51172 0.078125 0.21875 0.27734 0.35547 0.64844 0.35547 1.0625z" fill="#8d95ff"/>
<path transform="matrix(.19759 0 0 .19693 -17.412 -17.836)" d="m492.71 269.49c0 4.8003-3.9144 8.708-8.5998 8.708-4.804 0-8.5998-3.9077-8.5998-8.708s3.8946-8.589 8.5998-8.589c4.7842 0 8.5998 3.7887 8.5998 8.589zm0 0" fill="none" stroke="#112544" stroke-linecap="round" stroke-linejoin="round" stroke-miterlimit="10" stroke-width="1.5"/>
<path d="m85.652 35.234c0 0.94531-0.77344 1.6953-1.6992 1.6953-0.53516 0-1.0312-0.25781-1.3438-0.64844-0.23828-0.29688-0.37891-0.67188-0.37891-1.0664 0-0.94531 0.77344-1.7109 1.7227-1.7109 0.17578 0 0.35547 0.019532 0.51172 0.078125 0.67188 0.25391 1.1875 0.90625 1.1875 1.6523z" fill="#757bff"/>
<path d="m84.82 34.684c0 0.94531-0.76953 1.7148-1.6992 1.7148-0.17578 0-0.35547-0.019532-0.51172-0.078126-0.23828-0.29687-0.37891-0.67187-0.37891-1.0664 0-0.94531 0.77344-1.7109 1.7227-1.7109 0.17578 0 0.35547 0.019531 0.51172 0.078125 0.21875 0.27734 0.35547 0.64844 0.35547 1.0625z" fill="#8d95ff"/>
<path transform="matrix(.19759 0 0 .19693 -17.412 -17.836)" d="m521.61 269.49c0 4.8003-3.9144 8.708-8.5998 8.708-4.804 0-8.5998-3.9077-8.5998-8.708s3.8946-8.589 8.5998-8.589c4.6854 0 8.5998 3.7887 8.5998 8.589zm0 0" fill="none" stroke="#112544" stroke-linecap="round" stroke-linejoin="round" stroke-miterlimit="10" stroke-width="1.5"/>
<path d="m62.848 46.797c0 0.94531-0.76953 1.6914-1.6992 1.6914-0.53125 0-1.0273-0.25391-1.3438-0.64844-0.23438-0.29688-0.375-0.67188-0.375-1.0625 0-0.94531 0.76953-1.7148 1.7188-1.7148 0.17969 0 0.35547 0.019531 0.51562 0.078125 0.69141 0.25781 1.1836 0.88672 1.1836 1.6562z" fill="#757bff"/>
<path d="m62.039 46.223c0 0.94531-0.76953 1.7148-1.6992 1.7148-0.17969 0-0.35547-0.019531-0.51562-0.078125-0.23438-0.29688-0.375-0.67188-0.375-1.0625 0-0.94531 0.77344-1.7148 1.7188-1.7148 0.17969 0 0.35547 0.019531 0.51562 0.078125 0.21484 0.29688 0.35547 0.67188 0.35547 1.0625z" fill="#8d95ff"/>
<path transform="matrix(.19759 0 0 .19693 -17.412 -17.836)" d="m406.19 328.21c0 4.8003-3.8946 8.6881-8.5998 8.6881-4.804 0-8.5998-3.8878-8.5998-8.6881 0-4.8003 3.9144-8.6088 8.5998-8.6088 4.7052 0 8.5998 3.8085 8.5998 8.6088zm0 0" fill="none" stroke="#112544" stroke-linecap="round" stroke-linejoin="round" stroke-miterlimit="10" stroke-width="1.5"/>
<path d="m68.539 46.797c0 0.94531-0.76953 1.6914-1.6992 1.6914-0.53516 0-1.0273-0.25391-1.3438-0.64844-0.23828-0.29688-0.375-0.67188-0.375-1.0625 0-0.94531 0.76953-1.7148 1.7188-1.7148 0.17969 0 0.35547 0.019531 0.51562 0.078125 0.69141 0.25781 1.1836 0.88672 1.1836 1.6562z" fill="#757bff"/>
<path d="m67.73 46.223c0 0.94531-0.77344 1.7148-1.6992 1.7148-0.17969 0-0.35547-0.019531-0.51562-0.078125-0.23828-0.29688-0.375-0.67188-0.375-1.0625 0-0.94531 0.76953-1.7148 1.7188-1.7148 0.17969 0 0.35547 0.019531 0.51562 0.078125 0.21484 0.29688 0.35547 0.67188 0.35547 1.0625z" fill="#8d95ff"/>
<path transform="matrix(.19759 0 0 .19693 -17.412 -17.836)" d="m435 328.21c0 4.8003-3.8946 8.6881-8.5998 8.6881-4.804 0-8.5998-3.8878-8.5998-8.6881 0-4.8003 3.8946-8.6088 8.5998-8.6088 4.804 0 8.5998 3.8085 8.5998 8.6088zm0 0" fill="none" stroke="#112544" stroke-linecap="round" stroke-linejoin="round" stroke-miterlimit="10" stroke-width="1.5"/>
<path d="m74.25 46.797c0 0.94531-0.76953 1.6914-1.6992 1.6914-0.53516 0-1.0273-0.25391-1.3438-0.64844-0.23828-0.29688-0.375-0.67188-0.375-1.0625 0-0.94531 0.76953-1.7148 1.7188-1.7148 0.17578 0 0.35547 0.019531 0.51172 0.078125 0.69141 0.25781 1.1875 0.88672 1.1875 1.6562z" fill="#757bff"/>
<path d="m73.418 46.223c0 0.94531-0.76953 1.7148-1.6992 1.7148-0.17578 0-0.35547-0.019531-0.51172-0.078125-0.23828-0.29688-0.375-0.67188-0.375-1.0625 0-0.94531 0.76953-1.7148 1.7188-1.7148 0.17578 0 0.35547 0.019531 0.51172 0.078125 0.21875 0.29688 0.35547 0.67188 0.35547 1.0625z" fill="#8d95ff"/>
<path transform="matrix(.19759 0 0 .19693 -17.412 -17.836)" d="m463.9 328.21c0 4.8003-3.8946 8.6881-8.5998 8.6881-4.804 0-8.5998-3.8878-8.5998-8.6881 0-4.8003 3.8946-8.6088 8.5998-8.6088 4.7052 0 8.5998 3.8085 8.5998 8.6088zm0 0" fill="none" stroke="#112544" stroke-linecap="round" stroke-linejoin="round" stroke-miterlimit="10" stroke-width="1.5"/>
<path d="m79.941 46.797c0 0.94531-0.77344 1.6914-1.6992 1.6914-0.53516 0-1.0273-0.25391-1.3438-0.64844-0.23828-0.29688-0.375-0.67188-0.375-1.0625 0-0.94531 0.76953-1.7148 1.7188-1.7148 0.17578 0 0.35547 0.019531 0.51172 0.078125 0.69141 0.25781 1.1875 0.88672 1.1875 1.6562z" fill="#757bff"/>
<path d="m79.129 46.223c0 0.94531-0.76953 1.7148-1.6992 1.7148-0.17578 0-0.35547-0.019531-0.51172-0.078125-0.23828-0.29688-0.375-0.67188-0.375-1.0625 0-0.94531 0.76953-1.7148 1.7188-1.7148 0.17578 0 0.35547 0.019531 0.51172 0.078125 0.21875 0.29688 0.35547 0.67188 0.35547 1.0625z" fill="#8d95ff"/>
<path transform="matrix(.19759 0 0 .19693 -17.412 -17.836)" d="m492.71 328.21c0 4.8003-3.9144 8.6881-8.5998 8.6881-4.804 0-8.5998-3.8878-8.5998-8.6881 0-4.8003 3.8946-8.6088 8.5998-8.6088 4.7842 0 8.5998 3.8085 8.5998 8.6088zm0 0" fill="none" stroke="#112544" stroke-linecap="round" stroke-linejoin="round" stroke-miterlimit="10" stroke-width="1.5"/>
<path d="m85.652 46.797c0 0.94531-0.77344 1.6914-1.6992 1.6914-0.53516 0-1.0312-0.25391-1.3438-0.64844-0.23828-0.29688-0.37891-0.67188-0.37891-1.0625 0-0.94531 0.77344-1.7148 1.7227-1.7148 0.17578 0 0.35547 0.019531 0.51172 0.078125 0.67188 0.25781 1.1875 0.88672 1.1875 1.6562z" fill="#757bff"/>
<path d="m84.82 46.223c0 0.94531-0.76953 1.7148-1.6992 1.7148-0.17578 0-0.35547-0.019531-0.51172-0.078125-0.23828-0.29688-0.37891-0.67188-0.37891-1.0625 0-0.94531 0.77344-1.7148 1.7227-1.7148 0.17578 0 0.35547 0.019531 0.51172 0.078125 0.21875 0.29688 0.35547 0.67188 0.35547 1.0625z" fill="#8d95ff"/>
<path transform="matrix(.19759 0 0 .19693 -17.412 -17.836)" d="m521.61 328.21c0 4.8003-3.9144 8.6881-8.5998 8.6881-4.804 0-8.5998-3.8878-8.5998-8.6881 0-4.8003 3.8946-8.6088 8.5998-8.6088 4.6854 0 8.5998 3.8085 8.5998 8.6088zm0 0" fill="none" stroke="#112544" stroke-linecap="round" stroke-linejoin="round" stroke-miterlimit="10" stroke-width="1.5"/>
<g clip-path="url(#i)">
<path d="m43.367 2.6641v11.008c0 1.0625-0.87109 1.9297-1.9375 1.9297h-13.672c-1.0664 0-1.9375-0.86719-1.9375-1.9297v-11.008c0-1.0625 0.87109-1.9297 1.9375-1.9297h13.672c1.0859 0 1.9375 0.86719 1.9375 1.9297z" fill="#fff"/>
</g>
<g clip-path="url(#g)">
<path d="m43.367 2.6641v11.008c0 1.0625-0.87109 1.9297-1.9375 1.9297h-13.672c-0.73047 0-1.3828-0.41406-1.6992-1.0234 0.25781 0.11719 0.53125 0.17578 0.80859 0.17578h13.672c1.0703 0 1.9375-0.86328 1.9375-1.9297v-10.988c0-0.33203-0.078124-0.62891-0.23437-0.90625 0.66797 0.29687 1.125 0.96484 1.125 1.7344z" fill="#ccd2ff"/>
</g>
<g clip-path="url(#n)">
<path transform="matrix(.19759 0 0 .19693 -17.412 -17.836)" d="m307.6 104.1v55.898c0 5.3954-4.4086 9.799-9.8057 9.799h-69.194c-5.3971 0-9.8057-4.4036-9.8057-9.799v-55.898c0-5.3954 4.4086-9.799 9.8057-9.799h69.194c5.4959 0 9.8057 4.4036 9.8057 9.799zm0 0" fill="none" stroke="#112544" stroke-linecap="round" stroke-linejoin="round" stroke-miterlimit="10" stroke-width="1.5"/>
</g>
<g clip-path="url(#k)">
<path d="m102.33 69.227v11.008c0 1.0625-0.87109 1.9297-1.9375 1.9297h-13.672c-1.0664 0-1.9375-0.86719-1.9375-1.9297v-11.008c0-1.0625 0.87109-1.9297 1.9375-1.9297h13.672c1.0664 0.019531 1.9375 0.86719 1.9375 1.9297z" fill="#fff"/>
</g>
<g clip-path="url(#a)">
<path d="m102.33 69.227v11.008c0 1.0625-0.87109 1.9297-1.9375 1.9297h-13.672c-0.73047 0-1.3828-0.41406-1.6992-1.0234 0.25391 0.11719 0.53125 0.17578 0.80859 0.17578h13.672c1.0703 0 1.9375-0.86719 1.9375-1.9297v-11.008c0-0.33594-0.078125-0.62891-0.23828-0.90625 0.67188 0.31641 1.1289 0.98438 1.1289 1.7539z" fill="#ccd2ff"/>
</g>
<g clip-path="url(#m)">
<path transform="matrix(.19759 0 0 .19693 -17.412 -17.836)" d="m606.01 442.1v55.898c0 5.3954-4.4086 9.799-9.8057 9.799h-69.194c-5.3971 0-9.8057-4.4036-9.8057-9.799v-55.898c0-5.3954 4.4086-9.799 9.8057-9.799h69.194c5.3971 0.09918 9.8057 4.4036 9.8057 9.799zm0 0" fill="none" stroke="#112544" stroke-linecap="round" stroke-linejoin="round" stroke-miterlimit="10" stroke-width="1.5"/>
</g>
<path transform="matrix(.19759 0 0 .19693 -17.412 -17.836)" d="m263.3 169.8v57.504h80.403" fill="none" stroke="#112544" stroke-linecap="round" stroke-linejoin="round" stroke-miterlimit="10" stroke-width="1.5"/>
<path transform="matrix(.19759 0 0 .19693 -17.412 -17.836)" d="m517.3 470.49h-55.493v-88.488" fill="none" stroke="#112544" stroke-linecap="round" stroke-linejoin="round" stroke-miterlimit="10" stroke-width="1.5"/>
<path d="m32.48 11.684c-0.55469-0.33594-0.96875-0.76953-1.2852-1.3008-0.29687-0.55078-0.45312-1.1211-0.45312-1.75 0-0.76953 0.19531-1.5 0.58984-2.168 0.39844-0.66797 0.92969-1.2031 1.6016-1.6133 0.67188-0.39453 1.4023-0.61328 2.1719-0.61328 0.71484 0 1.3633 0.16016 1.957 0.45312 0.59375 0.29688 1.0859 0.73047 1.4414 1.2617 0.35938 0.53125 0.53516 1.1406 0.53516 1.832 0 0.43359-0.058593 0.84766-0.19922 1.2188-0.13672 0.39453-0.33594 0.71094-0.62891 0.94531-0.27734 0.25781-0.65234 0.375-1.0898 0.375-0.33594 0-0.60938-0.078125-0.80859-0.21484-0.19922-0.16016-0.31641-0.33594-0.35547-0.53516-0.21875 0.25781-0.47266 0.45312-0.76953 0.59375-0.29688 0.11719-0.61328 0.19531-0.94922 0.19531-0.55469 0-0.98828-0.17578-1.2852-0.51172-0.31641-0.33594-0.47266-0.76953-0.47266-1.3008 0-0.51172 0.11719-0.96484 0.35547-1.3359 0.23437-0.375 0.53125-0.67188 0.90625-0.86719 0.37891-0.19922 0.77344-0.29688 1.1875-0.29688 0.51172 0 0.94922 0.17578 1.3242 0.53125l0.039063-0.17578c0.019531-0.097656 0.058593-0.15625 0.13672-0.21875 0.082031-0.058594 0.16016-0.097656 0.25781-0.097656s0.19922 0.039062 0.25781 0.097656c0.078126 0.082031 0.097657 0.16016 0.097657 0.27734l-0.019531 0.11719-0.33594 1.9492c-0.039062 0.25781-0.078125 0.47266-0.078125 0.67188 0 0.19531 0.039063 0.35156 0.13672 0.47266 0.082031 0.11719 0.21875 0.19531 0.39453 0.19531 0.4375 0 0.75391-0.17578 0.98828-0.55078 0.23828-0.375 0.35547-0.86719 0.35547-1.4961 0-0.63281-0.15625-1.1836-0.49219-1.6367-0.31641-0.45312-0.75-0.80469-1.2656-1.0234-0.51172-0.23437-1.0664-0.35547-1.6211-0.35547-0.67188 0-1.3203 0.17969-1.8945 0.53516-0.59375 0.35156-1.0664 0.82422-1.4023 1.418-0.35547 0.58984-0.53516 1.2188-0.53516 1.9102 0 0.51172 0.12109 0.98438 0.375 1.457 0.23828 0.47266 0.59375 0.84375 1.0664 1.1211 0.47656 0.29688 1.0078 0.43359 1.6602 0.43359 0.41797 0 0.79297-0.039063 1.0898-0.11719 0.3125-0.078125 0.66797-0.19922 1.0664-0.35547 0.039062-0.019532 0.078125-0.019532 0.11719-0.019532 0.078124 0 0.13672 0.019532 0.17969 0.078125 0.039063 0.039063 0.078125 0.097657 0.078125 0.17578 0 0.042969-0.019531 0.10156-0.039062 0.14063-0.019532 0.039062-0.0625 0.078124-0.10156 0.097656-0.73047 0.35547-1.5195 0.55078-2.3906 0.55078-0.71094-0.058594-1.3438-0.21484-1.8945-0.55078zm3.5352-3.4648 0.16016-0.96484c-0.29688-0.31641-0.69141-0.47266-1.168-0.47266-0.29687 0-0.57422 0.058594-0.82812 0.19531-0.25781 0.13672-0.47656 0.31641-0.63281 0.57031-0.16016 0.25781-0.23828 0.55078-0.23828 0.90625 0 0.39453 0.12109 0.69141 0.33594 0.90625 0.21875 0.19531 0.51562 0.29688 0.85156 0.29688 0.86719 0 1.3633-0.49219 1.5195-1.4375z" fill="#e1e5ff"/>
<path d="m32.203 11.426c-0.55469-0.33203-0.96875-0.76562-1.2852-1.2969-0.29688-0.55469-0.45312-1.125-0.45312-1.7539 0-0.76953 0.19531-1.4961 0.59375-2.168 0.39453-0.66797 0.92578-1.1992 1.5977-1.6133 0.67188-0.39453 1.4023-0.60938 2.1758-0.60938 0.71094 0 1.3633 0.15625 1.9531 0.45312 0.59375 0.29297 1.0898 0.72656 1.4453 1.2578s0.53125 1.1445 0.53125 1.832c0 0.43359-0.058594 0.84766-0.19531 1.2227-0.14062 0.39453-0.33594 0.70703-0.63281 0.94531-0.27734 0.25391-0.65234 0.375-1.0859 0.375-0.33594 0-0.61328-0.082031-0.8125-0.21875-0.19531-0.15625-0.31641-0.33594-0.35547-0.53125-0.21484 0.25391-0.47266 0.45313-0.76953 0.58984-0.29688 0.11719-0.61328 0.19922-0.94922 0.19922-0.55469 0-0.98828-0.17969-1.2852-0.51172-0.31641-0.33594-0.47266-0.76953-0.47266-1.3008 0-0.51172 0.11719-0.96484 0.35547-1.3398 0.23828-0.375 0.53516-0.66797 0.91016-0.86719 0.375-0.19531 0.76953-0.29297 1.1836-0.29297 0.51562 0 0.94922 0.17578 1.3242 0.53125l0.039063-0.17969c0.019531-0.097657 0.058594-0.15625 0.14062-0.21484 0.078125-0.058594 0.15625-0.097656 0.25391-0.097656 0.10156 0 0.19922 0.039062 0.25781 0.097656 0.078125 0.078125 0.097656 0.15625 0.097656 0.27344l-0.019531 0.12109-0.33594 1.9492c-0.039062 0.25391-0.078125 0.47266-0.078125 0.66797 0 0.19922 0.039063 0.35547 0.13672 0.47266 0.082031 0.11719 0.21875 0.19922 0.39844 0.19922 0.43359 0 0.75-0.17969 0.98828-0.55469 0.23438-0.37109 0.35547-0.86328 0.35547-1.4961 0-0.62891-0.16016-1.1797-0.49609-1.6328-0.31641-0.45312-0.75-0.80859-1.2656-1.0234-0.51172-0.23828-1.0664-0.35547-1.6172-0.35547-0.67188 0-1.3242 0.17578-1.8984 0.53125-0.59375 0.35547-1.0664 0.82812-1.4023 1.418-0.35547 0.58984-0.53516 1.2227-0.53516 1.9102 0 0.51172 0.12109 0.98438 0.375 1.457 0.23828 0.47266 0.59375 0.84766 1.0703 1.1211 0.47266 0.29687 1.0078 0.43359 1.6562 0.43359 0.41797 0 0.79297-0.039062 1.0898-0.11719 0.31641-0.078125 0.67188-0.19531 1.0664-0.35547 0.039063-0.019531 0.078125-0.019531 0.11719-0.019531 0.078125 0 0.14062 0.019531 0.17969 0.082031 0.039063 0.039063 0.078125 0.097656 0.078125 0.17578 0 0.039063-0.019531 0.097656-0.039062 0.13672-0.019532 0.039063-0.058594 0.078125-0.097656 0.097656-0.73438 0.35547-1.5234 0.55469-2.3945 0.55469-0.71094-0.0625-1.3398-0.21875-1.8945-0.55469zm3.5352-3.4844 0.16016-0.96484c-0.29688-0.31641-0.69141-0.47266-1.168-0.47266-0.29688 0-0.57031 0.058594-0.82812 0.19531-0.25781 0.14062-0.47266 0.31641-0.63281 0.57422-0.15625 0.25391-0.23828 0.55078-0.23828 0.90625 0 0.39062 0.12109 0.6875 0.33594 0.90234 0.21875 0.19922 0.51562 0.29688 0.85156 0.29688 0.86719 0 1.3633-0.47266 1.5195-1.4375z" fill="#8d95ff"/>
<path d="m96.715 73.914h-0.69141v-0.82812c0-1.1641-0.94922-2.1289-2.1328-2.1289-1.168 0-2.1328 0.94531-2.1328 2.1289v0.82812h-0.51562c-0.25781 0-0.45313 0.19531-0.45313 0.45313v4.5664c0 0.25781 0.19531 0.45312 0.45313 0.45312h5.4727c0.25781 0 0.45703-0.19531 0.45703-0.45312v-4.5664c0-0.25781-0.19922-0.45313-0.45703-0.45313zm-1.4219 0h-2.8047v-0.82812c0-0.76953 0.63281-1.3984 1.4023-1.3984s1.4023 0.62891 1.4023 1.3984z" fill="#e1e5ff"/>
<path d="m96.301 73.461h-0.69141v-0.82813c0-1.1641-0.94922-2.1289-2.1328-2.1289-1.168 0-2.1367 0.94531-2.1367 2.1289v0.82813h-0.51172c-0.25781 0-0.45703 0.19531-0.45703 0.45312v4.5664c0 0.25781 0.19922 0.45312 0.45703 0.45312h5.4727c0.25781 0 0.45312-0.19531 0.45312-0.45312v-4.5664c0-0.23828-0.19531-0.45312-0.45312-0.45312zm-1.4219 0h-2.8086v-0.82813c0-0.76953 0.63281-1.3984 1.4062-1.3984 0.76953 0 1.4023 0.62891 1.4023 1.3984z" fill="#fc6054"/>
<path d="m94.047 77.242h-0.96875c-0.058594 0-0.097656-0.0625-0.078125-0.10156l0.25781-0.98438c-0.13672-0.097656-0.21875-0.25391-0.21875-0.43359 0-0.29297 0.23828-0.53125 0.53516-0.53125s0.53125 0.23828 0.53125 0.53125c0 0.17969-0.097657 0.33594-0.21484 0.43359l0.25781 0.98438c0 0.039063-0.042969 0.10156-0.10156 0.10156z" fill="#fff"/>
<path d="m28.094 96.676s-1.4414 2.207-5 0.33594l-0.019531-0.27344-0.17969-2.3438h4.9805l0.097656 0.94531z" fill="#fcbba4"/>
<path d="m27.973 95.34c-0.058594-0.019532-0.13672-0.019532-0.19531-0.042969-0.43359-0.097656-0.87109-0.25391-1.3242-0.27344-0.45312-0.019532-0.94922 0.13672-1.1641 0.53125-0.14062 0.25781-0.14062 0.57031-0.29687 0.80859-0.19922 0.35156-0.65234 0.51172-1.0703 0.53125-0.29297 0-0.57031-0.058593-0.84766-0.15625l-0.17969-2.3438h4.9805z" fill="#f2a07c"/>
<path d="m9.3008 93.348-0.19531 1.8516-0.039063 0.43359s-1.6211 1.6172-4.3477-0.21484c-0.19922-0.14062-0.41406-0.29688-0.61328-0.45312l0.35547-2.6016z" fill="#fcbba4"/>
<path d="m9.3008 93.348-0.19531 1.8516c-0.49609-0.058594-0.96875-0.25391-1.4414-0.43359-0.65234-0.21484-1.3867-0.39062-1.9961-0.078125-0.35547 0.17969-0.63281 0.49219-0.94922 0.71094-0.19922-0.14063-0.41406-0.29688-0.61328-0.45313l0.35547-2.6016z" fill="#f2a07c"/>
<path transform="matrix(.19759 0 0 .19693 -17.412 -17.836)" d="m230.3 581.49s-7.295 11.207-25.305 1.7059l-1.0082-13.29h25.206zm0 0" fill="none" stroke="#112544" stroke-linecap="round" stroke-linejoin="round" stroke-miterlimit="10" stroke-width="1.5"/>
<g clip-path="url(#b)">
<path d="m34.039 101.09v0.019531c0 0.17578-0.13672 0.3125-0.31641 0.3125h-11.32c-0.17969 0-0.31641-0.13672-0.31641-0.3125 0.019531-0.29688 0.019531-0.82812-0.039063-1.793-0.097656-1.8125 1.0273-2.3047 1.0273-2.3047 3.5547 1.8711 5-0.33594 5-0.33594l1.4805 1.4375 2.7852 0.80859c1.0078 0.25781 1.6992 1.1641 1.6992 2.168z" fill="#112544"/>
</g>
<path d="m32.734 76.492-1.6758 16.285c-0.10156 0.88672-0.71484 1.5977-1.543 1.8516-0.19922 0.058594-0.39453 0.078125-0.61328 0.078125h-6.9336c-1.3828 0-2.4297-1.2969-2.0938-2.6367l3.9102-16.523c0.19922-0.80859 0.13672-1.6523-0.15625-2.4219-3.082-7.957-4.4688-14.945-4.0508-20.895h9.7578l0.55469 3.4453 2.7656 16.977c0.21875 1.2617 0.23828 2.5391 0.078125 3.8398z" fill="#66d3d8"/>
<path d="m29.043 93.883c0.21484 0.19531 0.375 0.44922 0.47266 0.70703-0.19922 0.058594-0.39453 0.078125-0.61328 0.078125h-6.9336c-1.3828 0-2.4297-1.3008-2.0938-2.6367l3.9102-16.523c0.19922-0.80859 0.13672-1.6562-0.15625-2.4219-3.082-7.957-4.4688-14.949-4.0508-20.895h9.7578l0.55469 3.4453c-1.7383 1.1836-3.8125 1.9102-5.1367 3.5469-2.0352 2.4805-1.5625 6.1836-0.31641 9.1562 1.2461 2.9531 3.1211 5.7109 3.7148 8.8594 0.55469 3.0547-0.23828 6.3438-2.1328 8.8047-0.73047 0.96484-1.6406 1.8125-2.1562 2.8945-0.53125 1.082-0.57031 2.5391 0.31641 3.3672 1.2656 1.1836 3.5977 0.41406 4.8633 1.6172z" fill="#47b6c3"/>
<path transform="matrix(.19759 0 0 .19693 -17.412 -17.836)" d="m208.5 474.1-19.789 83.906c-1.6013 6.9029 3.5981 13.389 10.597 13.389h35.091c5.5948 0 10.3-4.2052 10.913-9.799l8.4812-82.696c0.81055-6.5062 0.71171-13.092-0.29654-19.598l-16.784-103.7h-49.404c-2.2142 30.19 4.9029 65.697 20.501 106.1 1.3839 4.0069 1.7002 8.2914 0.69194 12.397zm0 0" fill="none" stroke="#112544" stroke-linecap="round" stroke-linejoin="round" stroke-miterlimit="10" stroke-width="1.5"/>
<path transform="matrix(.19759 0 0 .19693 -17.412 -17.836)" d="m133.91 576.2s-9.4103 9.5014-25.107-3.4911l1.799-13.31 24.593 5.0978zm0 0" fill="none" stroke="#112544" stroke-linecap="round" stroke-linejoin="round" stroke-miterlimit="10" stroke-width="1.5"/>
<g clip-path="url(#d)">
<path d="m13.945 101.17v0.019531c-0.039062 0.15625-0.19922 0.27344-0.35547 0.23438l-11.086-2.2812c-0.17578-0.042969-0.27344-0.21875-0.23438-0.375 0.078125-0.27734 0.19531-0.80859 0.33594-1.7539 0.25391-1.793 1.4805-2.0469 1.4805-2.0469 3.1016 2.5586 4.9609 0.6875 4.9609 0.6875l1.1641 1.7148 2.5703 1.3594c0.88672 0.43359 1.3828 1.4375 1.1641 2.4414z" fill="#112544"/>
</g>
<path d="m23.863 52.211-0.25391 2.0859-2.332 18.75c-0.19922 1.5156-0.59375 3.0117-1.1875 4.4297l-6.5 15.047c-0.31641 0.72656-1.0078 1.2188-1.8164 1.2969h-0.17969-8.2773c-1.6602 0-2.6875-1.7891-1.8789-3.207l8.832-15.363c0.45703-0.80469 0.67188-1.7305 0.65234-2.6758-0.21484-6.2812 0.17969-12.527 3.3203-20.344h9.6211z" fill="#66d3d8"/>
<path d="m23.863 52.211-0.25391 2.0859c-1.3242-0.58984-2.7266-0.80469-4.3477-0.35156-2.3711 0.62891-4.3281 2.5781-5 4.9414-0.82812 2.9727 0.35547 6.0859 0.84766 9.1367 1.0508 6.4805-1.2812 13.391-6.043 17.922-1.4453 1.3789-4.5469 3.5039-3.082 4.8633 0.88672 0.82812 2.4688 0.097656 3.5938 0.58984 1.0469 0.45312 1.957 1.3398 2.2148 2.4414h-0.17969-8.2773c-1.6602 0-2.6875-1.7891-1.8789-3.207l8.832-15.363c0.45703-0.80469 0.67188-1.7305 0.65234-2.6758-0.21484-6.2812 0.17969-12.523 3.3203-20.344h9.6016z" fill="#47b6c3"/>
<path transform="matrix(.19759 0 0 .19693 -17.412 -17.836)" d="m104.91 566.99h41.892c4.4086 0 8.3032-2.5985 10.003-6.5855l32.897-76.408c3.005-7.2005 5.0017-14.698 6.01-22.494l13.087-105.8h-48.693c-15.895 39.692-17.911 71.509-16.804 103.31 0.1977 4.7011-0.98848 9.4022-3.3015 13.588l-44.699 78.015c-3.9935 7.2996 1.3048 16.384 9.608 16.384zm0 0" fill="none" stroke="#112544" stroke-linecap="round" stroke-linejoin="round" stroke-miterlimit="10" stroke-width="1.5"/>
<path d="m37.617 53.234-0.16016 0.097656c-0.75 0.41406-1.7188 0.17969-2.1719-0.55078l-5.8477-9.2148-0.039062 4.9023-0.039063 3.7617h-15.117c-0.21875-1.793-0.51563-4.293-0.61328-6.793-0.13672-3.5859 0.097656-7.1875 1.543-8.7852 0.375-0.41406 0.78906-0.78516 1.2031-1.082 2.9062-2.125 6.6406-1.9492 6.6406-1.9492l2.8828 0.66797 0.65234 0.16016c1.543 0.35156 2.9844 1.0039 4.2695 1.9102 0.57422 0.41406 1.4219 1.457 2.3906 2.8555 1.9375 2.7344 4.3086 6.7734 5.75 9.5508 0.86719 1.5742 0.25781 3.582-1.3438 4.4688z" fill="#8d95ff"/>
<path d="m33.23 39.176c-0.65234-0.51172-1.3242-1.0039-2.0352-1.457-1.125-0.71094-2.3516-1.3008-3.6367-1.7344-2.293-0.76953-4.7227-1.082-7.1328-0.88672-1.1445 0.097656-2.2305 0.43359-3.3594 0.57031-0.33594 0.039062-0.53125-0.019531-0.67188-0.13672 2.9062-2.125 6.6406-1.9492 6.6406-1.9492l2.8828 0.66797 0.65234 0.16016c1.543 0.35156 2.9844 1.0039 4.2695 1.9102 0.57422 0.41406 1.4219 1.4766 2.3906 2.8555z" fill="#757bff"/>
<path transform="matrix(.19759 0 0 .19693 -17.412 -17.836)" d="m220.5 264.79-0.098848 0.51573c-1.7002 5.9905-7.295 10.196-13.601 10.196-1.3048 0-2.6887-0.19836-3.9935-0.59508-3.5981-1.0116-6.603-3.4118-8.4021-6.7046-1.0082-1.8051-1.6013-3.8085-1.7002-5.8119 6.8007-1.1902 12-1.1902 12-1.1902l14.59 3.3919zm0 0" fill="#fff" stroke="#112544" stroke-linecap="round" stroke-linejoin="round" stroke-miterlimit="10" stroke-width="1.5"/>
<path d="m29.379 48.449-0.042968 3.7617h-15.113c-0.21875-1.793-0.51562-4.293-0.61328-6.793 0.51562-0.35547 1.1445-0.55078 1.7578-0.67188 0.92969-0.19531 1.918-0.33203 2.6484-0.94531 0.57422-0.47266 0.67188-0.6875 0.98828-1.3555 0.15625-0.35547-0.80859-1.5195-0.29688-1.4414 0.49609 0.082032 1.6602 1.5977 1.7383 1.9531 0.27734 1.2383 1.0078 1.5156 1.8398 2.5 1.2422 1.4961 3.082 2.5195 5.0156 2.7773 0.69141 0.097656 1.4062 0.11719 2.0781 0.21484z" fill="#757bff"/>
<path transform="matrix(.19759 0 0 .19693 -17.412 -17.836)" d="m285.4 338.01c-5.7925-11.108-14.096-25.807-22.3-38.502-9.094 0.69426-17.793 4.8995-26.096 12.298l29.496 46.793c2.2933 3.7093 7.1961 4.9987 10.992 2.7969l0.9094-0.4959c8.2044-4.5028 11.288-14.698 6.9984-22.891zm0 0" fill="#fcbba4" stroke="#112544" stroke-linecap="round" stroke-linejoin="round" stroke-miterlimit="10" stroke-width="1.5"/>
<path transform="matrix(.19759 0 0 .19693 -17.412 -17.836)" d="m278.5 360.9-0.81055 0.4959c-3.7958 2.1026-8.6986 0.91245-10.992-2.7969l-29.595-46.793-0.39539 43.996h-76.508c-2.6096-22.196-6.4054-64.189 4.804-79.106 6.603-8.7873 18.603-12.596 27.697-14.203 6.8007-1.1902 12-1.1902 12-1.1902l14.59 3.3919 1.2059 0.31738 2.0956 0.4959c7.809 1.7852 15.104 5.0978 21.608 9.6998 8.5998 6.1888 30.188 41.794 41.2 62.9 4.29 8.0931 1.2059 18.289-6.8996 22.792zm0 0" fill="none" stroke="#112544" stroke-linecap="round" stroke-linejoin="round" stroke-miterlimit="10" stroke-width="1.5"/>
<path d="m49.375 43.191c-0.023438-0.039062-0.042969-0.078125-0.042969-0.097656-0.60938-1.2617-2.1328-1.7734-3.3789-1.1641l-27.641 13.414c-2.6875-3.0547-7.3125-4.0195-11.32-2.0703-3.125 1.5156-5.0781 4.4336-5.4336 7.543-0.17969 1.6133 0.078125 3.2891 0.82812 4.8438 2.2109 4.5312 7.8828 6.3438 12.625 4.0391 3.793-1.832 5.8711-5.7305 5.4336-9.5312 0-0.078125-0.019531-0.16016-0.019531-0.23828l0.058594-0.019532 9.7031-4.707 1.7383 3.5469c0.21875 0.45312 0.76953 0.64844 1.2461 0.43359l2.5469-1.2422c0.45703-0.21484 0.65234-0.78906 0.4375-1.2422l-0.37891-0.78516-1.3438-2.7773 0.79297-0.375 5.5508-2.6953 3.1211 6.3594c0.21875 0.45312 0.77344 0.64844 1.2266 0.43359l2.5508-1.2422c0.45312-0.21484 0.64844-0.76563 0.43359-1.2383l-0.375-0.78906-2.7266-5.5938 0.78906-0.375 2.4297-1.1797c1.1484-0.55078 1.6797-2.0078 1.1484-3.25zm-43.609 16.855c0.11719-0.11719 0.25781-0.21484 0.41406-0.29297 0.33594-0.15625 0.71094-0.17969 1.0469-0.058594 0.33594 0.11719 0.61328 0.35156 0.79297 0.6875l1.8359 3.7812 0.23828 0.47266c0.33594 0.69141 0.039062 1.4961-0.63281 1.832-0.69141 0.33594-1.5039 0.039062-1.8398-0.62891l-2.0742-4.2344c-0.27734-0.55078-0.15625-1.1641 0.21875-1.5586z" fill="#efa130"/>
<path d="m49.332 43.094c-0.60938-1.2617-2.1328-1.7734-3.3789-1.1641l-27.641 13.414c-2.6875-3.0547-7.3125-4.0195-11.32-2.0703-3.125 1.5156-5.0781 4.4336-5.4336 7.543 0.11719 0.96484 0.375 1.9297 0.82812 2.8555 2.2109 4.5312 7.8828 6.3398 12.625 4.0391 3.1211-1.5195 5.0977-4.4336 5.4336-7.543 0.019532-0.078125 0.019532-0.17969 0.019532-0.25781 0.058594-0.64844 0.039062-1.3203-0.058594-1.9688l9.7617-4.7461 1.7383 3.5469c0.21875 0.44922 0.76953 0.64844 1.2461 0.42969l2.5469-1.2383c0.019531 0 0.019531-0.019532 0.039062-0.019532l-1.3438-2.7773-0.78906-1.6133 7.1133-3.4688 3.1211 6.3633c0.21875 0.45312 0.76953 0.64844 1.2266 0.43359l2.5469-1.2422c0.019531 0 0.019531-0.019531 0.039063-0.019531l-2.7266-5.5938-0.78906-1.6133 4.0117-1.9492c0.57422-0.27734 0.98828-0.73047 1.2266-1.2812-0.023438 0.019531-0.042969-0.019532-0.042969-0.058594zm-39.496 23.039c-0.11719 0.12109-0.23828 0.21875-0.39453 0.29688-0.69141 0.33594-1.5039 0.039062-1.8398-0.62891l-1.8359-3.7812-0.23828-0.47266c-0.33594-0.67188-0.058594-1.5 0.63281-1.832 0.33594-0.16016 0.71094-0.17969 1.0469-0.058594 0.33594 0.11719 0.61328 0.35156 0.79297 0.6875l2.0742 4.2344c0.25391 0.55078 0.13672 1.1602-0.23828 1.5547z" fill="#ffc25e"/>
<path transform="matrix(.19759 0 0 .19693 -17.412 -17.836)" d="m331.31 366.81-15.816-32.313 16.31-7.8947c6.3065-3.0944 8.9952-10.791 5.8913-17.099-3.0841-6.407-10.794-9.0055-17.101-5.9111l-139.89 68.117c-13.601-15.512-37.009-20.411-57.312-10.513-23.981 11.604-34.399 39.811-23.19 62.801 11.19 23.01 39.895 32.214 63.895 20.51 19.611-9.5014 30.109-29.913 27.401-49.61l49.404-24.101 8.7975 18.011c1.1071 2.301 3.8946 3.2928 6.3065 2.2018l12.89-6.3078c2.313-1.091 3.3015-4.0069 2.2142-6.3078l-8.8172-17.991 32.007-15.591 15.796 32.293c1.1071 2.301 3.9144 3.2928 6.2077 2.2018l12.89-6.3078c2.313-0.9918 3.3015-3.7887 2.1153-6.1888zm-195.4 61.194c-3.4992 1.7059-7.6113 0.19836-9.3115-3.1936l-10.498-21.502c-1.7002-3.4118-0.1977-7.5972 3.2027-9.3031 1.7002-0.79344 3.5981-0.91245 5.2983-0.29754 1.7002 0.59508 3.1038 1.7852 4.0132 3.4911l10.498 21.502c1.7002 3.3919 0.1977 7.5972-3.2027 9.3031zm0 0" fill="none" stroke="#112544" stroke-linecap="round" stroke-linejoin="round" stroke-miterlimit="10" stroke-width="1.5"/>
<path d="m28.094 28.559c-0.92969 0.25781-1.8789-0.27344-2.1367-1.1992-0.058593-0.21875-0.078125-0.45312-0.058593-0.67188-0.15625-0.019531-0.29688-0.039062-0.45313-0.078125-0.27734 0.84766-0.91016 1.5586-1.7578 1.8711 0.078125 0.82812-0.43359 1.6172-1.2656 1.8516-0.92969 0.25781-1.875-0.27344-2.1328-1.1992-0.14062-0.47266-0.058593-0.94531 0.17578-1.3398-0.33594-0.35547-0.58984-0.78906-0.73047-1.2812-0.43359-1.5938 0.49609-3.2305 2.0742-3.6641 0.83203-0.23438 1.6602-0.097656 2.332 0.31641 0.29688-0.47266 0.76953-0.84766 1.3633-1.0234 1.2461-0.33594 2.5312 0.375 2.8672 1.6133 0.13672 0.53125 0.097656 1.0664-0.10156 1.5352 0.49609 0.19922 0.87109 0.61328 1.0273 1.1445 0.25781 0.92578-0.27344 1.8711-1.2031 2.125z" fill="#fc6054"/>
<path d="m24.398 25.922s-0.019532 0.96484 1.0664 1.5352l0.29688-0.84766c-0.57422-0.039063-0.98828-0.3125-1.3633-0.6875z" fill="#e64b38"/>
<path d="m28.352 23.656c-0.57422-0.66797-1.5039-0.98438-2.4141-0.72656-0.58984 0.15625-1.0664 0.53125-1.3633 1.0234-0.67188-0.41406-1.5195-0.55078-2.3281-0.31641-1.6016 0.43359-2.5312 2.0664-2.0781 3.6641 0.019531 0.078125 0.042969 0.15625 0.082031 0.23438-0.23828-0.29297-0.41797-0.64844-0.51562-1.0234-0.43359-1.5938 0.49609-3.2305 2.0742-3.6641 0.83203-0.23438 1.6602-0.097656 2.332 0.31641 0.29688-0.47266 0.76953-0.84766 1.3633-1.0234 1.207-0.33594 2.4492 0.33594 2.8477 1.5156z" fill="#e64b38"/>
<path transform="matrix(.19759 0 0 .19693 -17.412 -17.836)" d="m230.3 235.59c-4.7052 1.3092-9.5092-1.3885-10.814-6.0896-0.29654-1.1108-0.39539-2.301-0.29654-3.4118-0.79078-0.09918-1.5025-0.19836-2.2933-0.39672-1.4036 4.3044-4.6063 7.9145-8.8963 9.5014 0.39539 4.2052-2.1944 8.2121-6.4054 9.4022-4.7052 1.3092-9.4894-1.3885-10.794-6.0896-0.7117-2.4002-0.29654-4.8003 0.88963-6.8037-1.7002-1.8051-2.9852-4.0069-3.6969-6.5062-2.1944-8.0931 2.5107-16.404 10.498-18.606 4.2109-1.1902 8.4021-0.4959 11.802 1.6067 1.5025-2.4002 3.8946-4.3044 6.8996-5.197 6.3065-1.7059 12.811 1.9043 14.511 8.1922 0.69194 2.6977 0.49424 5.4152-0.51401 7.7955 2.5107 1.0116 4.4086 3.1142 5.1994 5.8119 1.3048 4.7011-1.3839 9.5014-6.089 10.791zm0 0" fill="none" stroke="#112544" stroke-linecap="round" stroke-linejoin="round" stroke-miterlimit="10" stroke-width="1.5"/>
<path d="m29.316 28.816c-0.15625 0.23438-0.41406 0.375-0.69141 0.35547 0.31641 1.6328-0.67188 3.2461-2.3086 3.6992-0.27734 0.082031-0.55469 0.12109-0.83203 0.12109h-0.019531l-0.097656 0.3125-0.16016 0.55078-0.078125 0.23828c-0.27734 0.92578-1.2461 1.4766-2.1914 1.2031-0.47656-0.14062-0.83203-0.45312-1.0703-0.84766-0.21484-0.39453-0.27344-0.86719-0.13672-1.3398l0.41406-1.457 0.10156-0.31641 0.13672-0.45313c-0.21875 0.14063-0.49609 0.16016-0.73047 0.039063-0.375-0.19531-0.53516-0.64844-0.35547-1.043 0.13672-0.27344 0.41406-0.43359 0.71094-0.43359l-0.078124-0.27344c-0.0625-0.19922-0.10156-0.41406-0.10156-0.61328 0.49609 0.14062 1.0469 0.14062 1.582 0 1.0078-0.27344 1.7578-1.043 2.0547-1.9688 0.41406 0.11719 0.85156 0.14062 1.2852 0.019531 0.27734-0.078125 0.53125-0.19531 0.76953-0.375 0.21875 0.25781 0.41406 0.57422 0.53516 0.90625 0.039062 0.10156 0.078124 0.21875 0.11719 0.33594l0.058594 0.29688c0.25781-0.16016 0.59375-0.17969 0.85156 0 0.35547 0.21484 0.45312 0.6875 0.23438 1.043z" fill="#fcbba4"/>
<path d="m25.484 32.992-0.097656 0.3125-0.16016 0.55078c-0.76953-0.19531-1.125-1.1797-1.125-1.1797 0.53516 0.17578 1.0078 0.29688 1.3828 0.31641z" fill="#f2a07c"/>
<path d="m28.055 27.141c-0.16016 0.25781-0.41797 0.45312-0.65234 0.61328-0.53516 0.29297-1.168 0.39062-1.7773 0.45312-0.61328 0.058594-1.2266 0.097657-1.8008 0.33203-0.35547 0.14063-0.73047 0.41406-0.76953 0.80859-0.019532 0.19531 0.058593 0.39453 0.097656 0.60938 0.12109 0.51172-0.058594 1.1055-0.45312 1.457-0.16016 0.14063-0.33594 0.23828-0.53516 0.27734l0.10156-0.31641 0.13672-0.45312c-0.21875 0.14062-0.49219 0.16016-0.73047 0.039063-0.375-0.19531-0.53516-0.64844-0.35547-1.043 0.13672-0.27344 0.41406-0.43359 0.71094-0.43359l-0.078125-0.27344c-0.0625-0.19922-0.10156-0.41406-0.10156-0.61328 0.49609 0.14062 1.0469 0.14062 1.582 0 1.0078-0.27344 1.7578-1.043 2.0547-1.9688 0.41406 0.12109 0.85156 0.14062 1.2852 0.019532 0.27734-0.078126 0.53125-0.19531 0.76953-0.37109 0.19922 0.23438 0.375 0.53125 0.51563 0.86328z" fill="#f2a07c"/>
<path transform="matrix(.19759 0 0 .19693 -17.412 -17.836)" d="m236.49 236.9c-0.79078 1.1902-2.0956 1.9043-3.4992 1.8051 1.6013 8.2914-3.4004 16.484-11.684 18.785-1.4036 0.41656-2.8073 0.61491-4.2109 0.61491l-0.49424 1.5869-1.2059 4.106c-1.4036 4.7011-6.3065 7.498-11.091 6.1095-2.4119-0.71409-4.2109-2.301-5.4169-4.3044-1.0873-2.0034-1.3839-4.4036-0.69194-6.8037l2.6096-9.0055 0.69194-2.301c-1.1071 0.71409-2.491 0.81327-3.6969 0.19836-1.8979-0.9918-2.7084-3.2928-1.799-5.2962 0.69194-1.3885 2.0956-2.2018 3.5981-2.2018l-0.39539-1.3885c-0.31631-1.0116-0.51401-2.1026-0.51401-3.1142 2.5107 0.7141 5.2983 0.7141 8.0067 0 5.1006-1.3885 8.8963-5.2962 10.399-9.9973 2.0956 0.61492 4.3098 0.7141 6.5042 0.09918 1.4036-0.39672 2.6887-0.9918 3.8946-1.8844 1.5025 1.7852 2.6096 3.7887 3.3015 6.1888l0.29654 1.5075c1.3048-0.81327 3.005-0.91245 4.3098 0 1.7002 1.091 2.1944 3.4911 1.0873 5.2962zm0 0" fill="none" stroke="#112544" stroke-linecap="round" stroke-linejoin="round" stroke-miterlimit="10" stroke-width="1.5"/>
<path transform="matrix(.19759 0 0 .19693 -17.412 -17.836)" d="m236.49 236.9c-0.79078 1.1902-2.0956 1.9043-3.4992 1.8051 1.6013 8.2914-3.4004 16.484-11.684 18.785-1.4036 0.41656-2.8073 0.61491-4.2109 0.61491l-0.49424 1.5869-1.2059 4.106c-1.4036 4.7011-6.3065 7.498-11.091 6.1095-2.4119-0.71409-4.2109-2.301-5.4169-4.3044-1.0873-2.0034-1.3839-4.4036-0.69194-6.8037l2.6096-9.0055 0.69194-2.301c-1.1071 0.71409-2.491 0.81327-3.6969 0.19836-1.8979-0.9918-2.7084-3.2928-1.799-5.2962 0.69194-1.3885 2.0956-2.2018 3.5981-2.2018l-0.39539-1.3885c-0.31631-1.0116-0.51401-2.1026-0.51401-3.1142 2.5107 0.7141 5.2983 0.7141 8.0067 0 5.1006-1.3885 8.8963-5.2962 10.399-9.9973 2.0956 0.61492 4.3098 0.7141 6.5042 0.09918 1.4036-0.39672 2.6887-0.9918 3.8946-1.8844 1.5025 1.7852 2.6096 3.7887 3.3015 6.1888l0.29654 1.5075c1.3048-0.81327 3.005-0.91245 4.3098 0 1.7002 1.091 2.1944 3.4911 1.0873 5.2962zm0 0" fill="none" stroke="#112544" stroke-linecap="round" stroke-linejoin="round" stroke-miterlimit="10" stroke-width="1.5"/>
<path transform="matrix(.19759 0 0 .19693 -17.412 -17.836)" d="m217.1 258.11c-2.9061 0-5.6936-0.71409-8.2044-2.1026" fill="none" stroke="#112544" stroke-linecap="round" stroke-linejoin="round" stroke-miterlimit="10" stroke-width="1.5"/>
<path transform="matrix(.19759 0 0 .19693 -17.412 -17.836)" d="m217 225.69c-2.7084-0.79344-5.1006-2.5985-6.603-4.9987" fill="none" stroke="#112544" stroke-linecap="round" stroke-linejoin="round" stroke-miterlimit="10" stroke-width="1.5"/>
<path d="m27.344 28.598c0.039062 0.14062-0.042969 0.25781-0.17969 0.29688-0.13672 0.039063-0.27734-0.039062-0.29687-0.15625-0.039063-0.14062 0.039062-0.27734 0.17969-0.29688 0.13672-0.019531 0.25391 0.019532 0.29688 0.15625z" fill="#112544"/>
<path d="m27.344 27.676c0.039062 0.11719-0.27734 0.27344-0.57422 0.35156s-0.71094 0.16016-0.73047 0.039062c-0.039062-0.11719 0.33594-0.35156 0.61328-0.43359 0.29297-0.078124 0.64844-0.058593 0.69141 0.042969z" fill="#112544"/>
<path d="m24.891 28.422c0.039063 0.11719-0.27344 0.27734-0.57031 0.35547-0.29687 0.078125-0.71094 0.15625-0.73437 0.039062-0.039063-0.11719 0.33594-0.35547 0.61328-0.43359 0.27734-0.078124 0.65234-0.078124 0.69141 0.039063z" fill="#112544"/>
<path d="m24.715 29.406c0.039062 0.13672-0.039063 0.25781-0.17969 0.29688-0.13672 0.039063-0.27734-0.039063-0.29688-0.16016-0.039062-0.13672 0.042969-0.27344 0.17969-0.29297 0.11719-0.039062 0.27734 0.039062 0.29688 0.15625z" fill="#112544"/>
<path transform="matrix(.19759 0 0 .19693 -17.412 -17.836)" d="m218.5 237s4.7052 5.4946 3.1038 5.3954c-0.51401 0-1.9967 0.19836-1.9967 0.19836" fill="none" stroke="#112544" stroke-linecap="round" stroke-linejoin="round" stroke-miterlimit="10" stroke-width="1.5"/>
<path transform="matrix(.19759 0 0 .19693 -17.412 -17.836)" d="m233.19 234.8 0.81055-0.19836" fill="none" stroke="#112544" stroke-linecap="round" stroke-linejoin="round" stroke-miterlimit="10" stroke-width="1.5"/>
<path transform="matrix(.19759 0 0 .19693 -17.412 -17.836)" d="m198.1 244.5 0.79078-0.19836" fill="none" stroke="#112544" stroke-linecap="round" stroke-linejoin="round" stroke-miterlimit="10" stroke-width="1.5"/>
<path d="m25.328 30.688c0 0.039062 0.097656 0.72656 0.47266 1.1211 0.11719 0.13672 0.29688 0.23828 0.49219 0.27734h0.0625c0.25391 0 0.45312-0.17969 0.60938-0.39453 0.29688-0.43359 0.41797-1.043 0.41797-1.1016 0-0.019532 0-0.039063-0.019531-0.039063h-0.039062s-0.10156 0.058594-0.27734 0.11719c-0.27734 0.097656-0.77344 0.17578-1.3633 0.058593-0.10156-0.019531-0.19922-0.039062-0.27734-0.078124h-0.039062c-0.039063 0.019531-0.039063 0.019531-0.039063 0.039062z" fill="#112544"/>
<path d="m25.957 31.711c0.10156 0.097656 0.21875 0.17578 0.35938 0.19531h0.039063c0.19531 0 0.33594-0.11719 0.45312-0.29297-0.097656-0.097656-0.21875-0.17969-0.35547-0.19922h-0.039063c-0.19922 0-0.35547 0.12109-0.45703 0.29688z" fill="#fc6054"/>
<path d="m25.684 30.707c0.097656 0.27344 0.35547 0.45312 0.67188 0.45312 0.31641 0 0.58984-0.21875 0.69141-0.51172-0.29688 0.097656-0.77344 0.19531-1.3633 0.058593z" fill="#fff"/>
<path transform="matrix(.19759 0 0 .19693 -17.412 -17.836)" d="m237.11 311.7v-7.7955" fill="none" stroke="#112544" stroke-linecap="round" stroke-linejoin="round" stroke-miterlimit="10" stroke-width="1.5"/>
<path d="m33.27 51.051c0.51562 0.29297 0.91016 0.57031 0.98828 0.88281 0.11719 0.47266-0.71094-0.019532-1.3633-0.23438 0.41406 0.25391 0.69141 0.45312 0.76953 0.70703 0.14063 0.49219-0.73047 0.019531-1.4023-0.21484 0.33594 0.21484 0.65234 0.21484 0.71094 0.45312 0.16016 0.57031-1.6406 0.11719-2.4297-0.097656-0.23828-0.058594-0.375-0.12109-0.375-0.12109l-7.0547-0.76562c-0.76953-0.078125-1.5195-0.21875-2.2734-0.43359-1.5-0.43359-2.8828-1.1211-4.0273-2.1055-1.1094-0.94531-1.9766-2.1484-2.4922-3.625-0.019531-0.039063-0.039062-0.097656-0.039062-0.13672-0.43359-1.3594-0.59375-2.7773-0.41406-4.1953 0.019531-0.21875 0.058593-0.39453 0.097656-0.55078l4.5664-0.61328 0.41406 1.9492c0.61328 2.918 2.8242 5.2188 5.7109 5.9492l5.9844 1.5156s1.2852-1.0625 1.6992-0.66797c0.27734 0.27344-0.43359 1.0625-0.43359 1.0625s2.3125 0.62891 2.5078 1.3789c0.082032 0.41406-0.55078 0.039062-1.1445-0.13672z" fill="#fcbba4"/>
<path d="m30.582 52.406c0 0.0625-0.019531 0.10156-0.058593 0.14062-0.23828-0.058594-0.375-0.12109-0.375-0.12109l-7.0547-0.76562c-0.76953-0.078125-1.5195-0.21875-2.2734-0.43359-1.5-0.43359-2.8828-1.1211-4.0312-2.1055-1.1055-0.94531-1.9727-2.1484-2.4883-3.625 0.058594-0.43359 0.27734-0.80859 0.76953-0.88672 0.63281-0.097656 0.71094 0.73047 0.8125 1.1641 0.31641 1.2969 1.0664 2.5 2.1133 3.3477 0.59375 0.47266 1.2656 0.84375 1.9961 1.0625 1.582 0.45312 3.2617 0.23438 4.8984 0.33203 1.8398 0.10156 3.6367 0.59375 5.2773 1.418 0.23828 0.082031 0.45312 0.25781 0.41406 0.47266z" fill="#f2a07c"/>
<path transform="matrix(.19759 0 0 .19693 -17.412 -17.836)" d="m181.81 293.69 2.0956 9.8981c3.1038 14.817 14.293 26.501 28.903 30.21l30.287 7.6964s6.5042-5.3954 8.5998-3.3919c1.4036 1.3885-2.1944 5.3954-2.1944 5.3954s11.704 3.1936 12.692 7.0021c0.61286 2.1026-2.5898 0.19836-5.5948-0.69426 2.6096 1.4877 4.6063 2.896 5.0017 4.4829 0.59309 2.4002-3.5981-0.09918-6.8996-1.1902 2.0956 1.2893 3.4992 2.301 3.8946 3.5903 0.71171 2.4993-3.6969 0.09918-7.0973-1.091 1.7002 1.091 3.3015 1.091 3.5981 2.301 1.0082 3.8085-14.195-1.1108-14.195-1.1108l-35.704-3.8878c-3.8946-0.39672-7.6904-1.1108-11.506-2.2018-7.5915-2.2018-14.59-5.6929-20.382-10.692-5.8123-4.8995-10.201-11.207-12.811-19.102-2.1944-6.9029-3.005-14.103-2.0956-21.304 0.098848-1.1108 0.29654-2.0034 0.49424-2.7969" fill="none" stroke="#112544" stroke-linecap="round" stroke-linejoin="round" stroke-miterlimit="10" stroke-width="1.5"/>
<path transform="matrix(.19759 0 0 .19693 -17.412 -17.836)" d="m158.8 296.81c-0.1977 0.79344-0.29654 1.6861-0.49424 2.7969-0.9094 7.2005-0.098848 14.401 2.0956 21.304 0.49424 1.6861 1.2059 3.2928 1.8979 4.8003 9.608-7.0021 20.995-7.617 34.794 0-6.5833-5.6136-11.288-13.31-13.087-22.117l-2.0956-9.8981" fill="#8d95ff" stroke="#112544" stroke-linecap="round" stroke-linejoin="round" stroke-miterlimit="10" stroke-width="1.5"/>
<path transform="matrix(.19759 0 0 .19693 -17.412 -17.836)" d="m285.2 355.1c-2.6096 2.4993-9.8057 5.6929-12.514 3.4911-1.3839-1.091-5.8913-8.4898-3.2818-9.1047 1.1862-0.19836 2.2933 1.6067 3.4992 3.1142-1.4036-3.1142-3.4992-5.9111-2.0165-6.8037 1.1071-0.59508 2.7084 1.7059 4.1121 3.4911-1.4036-2.9952-3.4004-5.9905-2.1944-6.288 1.4827-0.39672 3.4004 1.9043 4.9819 4.2052-1.0873-2.7175-2.6887-5.1177-1.3839-5.7128 2.5898-1.1902 6.7019 9.3031 6.7019 9.3031s3.4004-3.8085 4.7842-2.5985c2.1153 1.8051-1.0873 5.3954-2.6887 6.9029zm0 0" fill="#fcbba4" stroke="#112544" stroke-linecap="round" stroke-linejoin="round" stroke-miterlimit="10" stroke-width="1.5"/>
<g clip-path="url(#e)">
<path d="m51.488 101.44h31.297c1.2266-1.9883 4.8789-8.3086 3.2227-10.238-1.9766-2.3047-7.2734 3.6445-7.2734 3.6445s4.0898-8.293 1.168-9.9062c-3.4414-1.8711-8.1016 3.7812-8.1016 3.7812s1.5977-12.961-3.418-12.859c-4.7617 0.078125-5.5742 14-5.5742 14s-6.4805-17.289-10.906-15.578c-4.8008 1.8711 2.7852 20.402 2.7852 20.402s-6.3203-9.0977-9.6211-6.3984c-3.9727 3.25 4.6016 11.48 6.4219 13.152z" fill="#8d95ff"/>
</g>
<path d="m73.895 86.652c-0.019531 2.1875-0.23828 3.9023-0.23828 3.9023s3.9336-4.7891 7.2305-4.0977c-0.11719-0.69141-0.43359-1.2227-0.98438-1.5156-1.9766-1.0625-4.3477 0.33203-6.0078 1.7109z" fill="#757bff"/>
<path d="m63.008 87.719c1.0078 2.2812 1.6406 3.9766 1.6406 3.9766s0.80859-13.922 5.5703-14c0.29688 0 0.55469 0.039063 0.80859 0.11719-0.55078-1.1836-1.4023-1.9688-2.6445-1.9492-3.5781 0.058594-4.9219 7.9531-5.375 11.855z" fill="#757bff"/>
<path d="m54.312 93.762c1.2461 1.418 2.1328 2.6602 2.2148 2.7773-0.17969-0.43359-7.5312-18.551-2.7891-20.402 0.71484-0.27344 1.4648-0.058594 2.2539 0.47266-1.4023-1.75-2.8242-2.8164-4.0898-2.3242-4.1484 1.6172 0.94922 15.676 2.4102 19.477z" fill="#757bff"/>
<g clip-path="url(#p)">
<path d="m51.074 101.03c-3.0039-3.1719-7.1758-8.4492-4.1719-10.91 1.4648-1.1836 3.5195-0.082032 5.3555 1.5352-2.1328-2.3633-5.2148-4.9844-7.1914-3.3672-3.7148 3.0312 3.5547 10.457 6.0078 12.742z" fill="#757bff"/>
</g>
<g clip-path="url(#j)">
<path transform="matrix(.19759 0 0 .19693 -17.412 -17.836)" d="m348.7 605.69h158.39c6.2077-10.097 24.692-42.191 16.31-51.99-10.003-11.703-36.811 18.507-36.811 18.507s20.699-42.112 5.9111-50.304c-17.417-9.5014-41.002 19.201-41.002 19.201s8.0858-65.816-17.298-65.3c-24.099 0.39672-28.211 71.092-28.211 71.092s-32.798-87.794-55.197-79.106c-24.297 9.5014 14.096 103.6 14.096 103.6s-31.987-46.198-48.693-32.491c-20.106 16.504 23.289 58.298 32.501 66.788zm0 0" fill="none" stroke="#112544" stroke-linecap="round" stroke-linejoin="round" stroke-miterlimit="10" stroke-width="1.5"/>
</g>
<g clip-path="url(#o)">
<path d="m57.871 101.44h16.793c0.65234-1.0625 2.6289-4.4492 1.7383-5.4922-1.0664-1.2422-3.9102 1.9688-3.9102 1.9688s2.1914-4.4492 0.61328-5.3164c-1.8594-1.0039-4.3477 2.0273-4.3477 2.0273s0.84766-6.9531-1.8398-6.9102c-2.5469 0.039062-2.9844 7.5195-2.9844 7.5195s-3.4766-9.2734-5.8477-8.3477c-2.5859 1.0039 1.5039 10.949 1.5039 10.949s-3.3984-4.8828-5.1797-3.4258c-2.1328 1.7109 2.4727 6.1211 3.4609 7.0273z" fill="#b9c3fc"/>
</g>
<path d="m68.758 97.031s2.4883-3.0312 4.3477-2.0273c0.13672 0.078125 0.25391 0.19531 0.35547 0.33594 0.29297-1.1445 0.39453-2.3242-0.35547-2.7383-1.6016-0.86719-3.6758 1.2812-4.2109 1.8711 0.019531 1.3789-0.13672 2.5586-0.13672 2.5586z" fill="#e1e5ff"/>
<path d="m63.934 97.621s0.4375-7.4609 2.9844-7.5195c1.3438-0.019531 1.8008 1.6914 1.9375 3.4258 0.11719-1.9492 0.097656-5.8711-1.9375-5.8281-2.5469 0.039062-2.9844 7.5195-2.9844 7.5195s-3.4766-9.293-5.8477-8.3477c-0.86719 0.33594-0.98828 1.7109-0.75 3.3867 0.11719-0.47266 0.35547-0.82812 0.75-0.98437 2.3711-0.92578 5.8477 8.3477 5.8477 8.3477z" fill="#e1e5ff"/>
<path d="m54.215 96.973 0.17578-0.17578c1.7383-1.418 5.0391 3.2461 5.1602 3.4258-0.042969-0.097656-0.8125-2.0078-1.4648-4.1953-1.1445-1.2227-2.6875-2.4805-3.7148-1.6328-0.73047 0.60938-0.63281 1.5547-0.15625 2.5781z" fill="#e1e5ff"/>
<g clip-path="url(#l)">
<path transform="matrix(.19759 0 0 .19693 -17.412 -17.836)" d="m381.01 605.69h84.99c3.3015-5.3954 13.305-22.593 8.7975-27.889-5.3971-6.3078-19.789 9.9973-19.789 9.9973s11.091-22.593 3.1038-26.997c-9.4103-5.0978-22.004 10.295-22.004 10.295s4.29-35.308-9.3115-35.09c-12.89 0.19836-15.104 38.184-15.104 38.184s-17.595-47.091-29.595-42.389c-13.087 5.0978 7.6113 55.6 7.6113 55.6s-17.2-24.795-26.214-17.396c-10.794 8.6881 12.514 31.083 17.516 35.685zm0 0" fill="none" stroke="#112544" stroke-linecap="round" stroke-linejoin="round" stroke-miterlimit="10" stroke-width="1.5"/>
</g>
<g clip-path="url(#c)">
<path transform="matrix(.19759 0 0 .19693 -17.412 -17.836)" d="m317.8 605.69h-17.397" fill="none" stroke="#112544" stroke-linecap="round" stroke-linejoin="round" stroke-miterlimit="10" stroke-width="1.5"/>
</g>
<g clip-path="url(#q)">
<path transform="matrix(.19759 0 0 .19693 -17.412 -17.836)" d="m348.7 605.69h-19.414" fill="none" stroke="#112544" stroke-linecap="round" stroke-linejoin="round" stroke-miterlimit="10" stroke-width="1.5"/>
</g>
<g clip-path="url(#f)">
<path transform="matrix(.19759 0 0 .19693 -17.412 -17.836)" d="m507.2 605.69h30.801" fill="none" stroke="#112544" stroke-linecap="round" stroke-linejoin="round" stroke-miterlimit="10" stroke-width="1.5"/>
</g>
<g clip-path="url(#h)">
<path transform="matrix(.19759 0 0 .19693 -17.412 -17.836)" d="m550.1 605.69h12.494" fill="none" stroke="#112544" stroke-linecap="round" stroke-linejoin="round" stroke-miterlimit="10" stroke-width="1.5"/>
</g>
</svg>
